<?xml version="1.0" encoding="UTF-8"?>
<svg version="1.1" xmlns="http://www.w3.org/2000/svg" width="360" height="360">
<path d="M0 0 C1.0297337 -0.00521549 2.05946739 -0.01043099 3.12040514 -0.01580453 C4.26036284 -0.01134309 5.40032055 -0.00688164 6.57482243 -0.002285 C7.77906252 -0.00540498 8.98330262 -0.00852497 10.22403485 -0.01173949 C13.57726717 -0.01835918 16.93027699 -0.01594612 20.28349602 -0.00976706 C23.89569357 -0.00525809 27.50787111 -0.01221859 31.12006474 -0.0177269 C38.20081787 -0.02663952 45.2815287 -0.02469052 52.36228352 -0.01890162 C58.11545619 -0.0143921 63.86861696 -0.01376914 69.62179089 -0.01594925 C70.4393853 -0.01625572 71.25697972 -0.01656218 72.09934973 -0.01687793 C73.76008447 -0.01751736 75.42081921 -0.01816579 77.08155394 -0.01882312 C92.66986442 -0.02453198 108.2581514 -0.01796 123.84645803 -0.00722238 C137.23135286 0.00171196 150.61621301 0.00016312 164.00110722 -0.00905991 C179.53058175 -0.01975562 195.06003566 -0.02398084 210.58951336 -0.01783538 C212.24457999 -0.01719826 213.89964662 -0.01656952 215.55471325 -0.01594925 C216.77631387 -0.01548642 216.77631387 -0.01548642 218.0225933 -0.01501425 C223.77050157 -0.01328508 229.51839681 -0.0162072 235.26630306 -0.02090836 C242.26880892 -0.02650951 249.27126992 -0.02501698 256.27377062 -0.01434687 C259.8487767 -0.00907954 263.42370792 -0.00705134 266.99871349 -0.01364517 C270.86868956 -0.02067524 274.73854221 -0.01229847 278.60851383 -0.002285 C279.74624082 -0.00674645 280.8839678 -0.01120789 282.05617136 -0.01580453 C283.60468352 -0.00798129 283.60468352 -0.00798129 285.18447876 0 C286.07839543 0.0003247 286.97231211 0.00064941 287.89331716 0.00098395 C290.15515995 0.25168228 290.15515995 0.25168228 293.15515995 2.25168228 C293.45653404 4.71048457 293.55963763 6.91954494 293.53611088 9.38142776 C293.54079085 10.12422645 293.54547082 10.86702513 293.55029261 11.63233286 C293.56230897 14.13445302 293.55275979 16.63603216 293.54334354 19.13815689 C293.54740634 20.92666826 293.55274658 22.71517711 293.55927372 24.50368118 C293.57298885 29.37143974 293.56763116 34.23900825 293.55813646 39.10677028 C293.55056036 44.1929672 293.55757986 49.27914746 293.56229496 54.365345 C293.567759 62.9091116 293.56054443 71.45280051 293.54627323 79.99655533 C293.5299507 89.88272073 293.53522974 99.7687005 293.55175245 109.65486139 C293.56535508 118.132177 293.56729281 126.60943663 293.55943644 135.08675963 C293.55475252 140.1545256 293.55415467 145.22220426 293.56404591 150.28996468 C293.57269534 155.05469283 293.56673079 159.81918112 293.54936314 164.58388329 C293.54538722 166.33547059 293.54655113 168.08707799 293.55315113 169.83865738 C293.56131347 172.22436429 293.55111011 174.60929603 293.53611088 176.99495316 C293.54280304 177.69300298 293.54949521 178.39105281 293.55639017 179.11025566 C293.52154353 181.95526089 293.45919898 183.8211836 291.79169273 186.18225956 C289.34200356 187.78305442 287.36785841 187.61839167 284.46106815 187.60812759 C283.27872089 187.61108841 282.09637363 187.61404922 280.87819767 187.61709976 C279.58385303 187.60479324 278.2895084 187.59248672 276.9559412 187.57980728 C275.58720427 187.57707481 274.21846439 187.57557658 272.84972477 187.57522964 C269.15563961 187.57020227 265.46190851 187.5459037 261.76793766 187.51758194 C258.70570734 187.49641562 255.64348244 187.48635167 252.58119869 187.47629166 C223.76828295 187.37900264 194.960562 186.90273008 166.15515995 186.25168228 C166.15515995 191.86168228 166.15515995 197.47168228 166.15515995 203.25168228 C168.26277714 203.21687759 170.37039433 203.18207291 172.5418787 203.14621353 C174.59386689 203.12278555 176.64583991 203.10458757 178.69788456 203.08688736 C180.11885136 203.07184468 181.53977208 203.05140524 182.96057987 203.02536392 C185.00862881 202.98877881 187.05606145 202.97191131 189.1043787 202.95871353 C190.95035648 202.93514786 190.95035648 202.93514786 192.83362675 202.91110611 C196.42227748 203.2790714 198.32581527 204.0442232 201.15515995 206.25168228 C201.15515995 206.91168228 201.15515995 207.57168228 201.15515995 208.25168228 C202.14515995 208.58168228 203.13515995 208.91168228 204.15515995 209.25168228 C204.90515995 211.25168228 204.90515995 211.25168228 205.15515995 213.25168228 C203.01047346 215.39636877 198.57071101 214.99126108 195.59265995 215.31418228 C194.38319706 215.45050064 194.38319706 215.45050064 193.14930058 215.58957291 C191.15168618 215.81415677 189.15347435 216.03341464 187.15515995 216.25168228 C189.3737359 216.99821885 191.59279396 217.74327985 193.81238651 218.4867897 C195.71596644 219.12453148 197.61895767 219.76403301 199.52137089 220.40524673 C204.01975828 221.91241105 208.51585705 223.38277083 213.07703495 224.68918228 C213.81244511 224.90292496 214.54785526 225.11666763 215.30555058 225.33688736 C216.68042107 225.73128335 218.05933725 226.11189951 219.44226933 226.47702408 C221.29578495 227.01340103 221.29578495 227.01340103 224.15515995 228.25168228 C225.07703495 230.39621353 225.07703495 230.39621353 225.15515995 232.25168228 C217.37602249 237.43777392 208.1129545 237.96012763 199.15515995 236.25168228 C194.48841364 235.21244886 189.86691433 234.05298336 185.24988651 232.81320572 C183.12450307 232.24346424 180.99586739 231.68759341 178.86609745 231.13449478 C168.4982291 228.42321685 168.4982291 228.42321685 166.15515995 227.25168228 C165.82515995 228.90168228 165.49515995 230.55168228 165.15515995 232.25168228 C151.62515995 232.25168228 138.09515995 232.25168228 124.15515995 232.25168228 C123.82515995 230.93168228 123.49515995 229.61168228 123.15515995 228.25168228 C122.48613651 228.50562759 121.81711308 228.75957291 121.1278162 229.02121353 C114.07152336 231.55011311 107.14610635 233.12343654 99.76868534 234.29977798 C95.84367282 234.8743852 95.84367282 234.8743852 92.15515995 236.25168228 C83.70577222 237.31658445 76.09697781 234.8150356 68.15515995 232.25168228 C67.82515995 230.93168228 67.49515995 229.61168228 67.15515995 228.25168228 C67.74039433 228.10472916 68.3256287 227.95777603 68.92859745 227.80636978 C75.14700466 226.18174087 81.2482804 224.2848186 87.34265995 222.25168228 C88.09015507 222.00273209 88.83765018 221.75378189 89.60779667 221.49728775 C94.49836035 219.85129023 99.33240574 218.0868413 104.15515995 216.25168228 C100.56161057 215.29180835 97.12038984 214.94924837 93.40515995 214.68918228 C92.2346912 214.60539322 91.06422245 214.52160416 89.85828495 214.43527603 C88.9662537 214.37469009 88.07422245 214.31410416 87.15515995 214.25168228 C86.82515995 213.26168228 86.49515995 212.27168228 86.15515995 211.25168228 C93.78929171 203.40549131 93.78929171 203.40549131 98.17957401 202.91110611 C99.33167362 202.92681656 100.48377323 202.94252701 101.67078495 202.95871353 C102.92117558 202.9683815 104.1715662 202.97804947 105.45984745 202.98801041 C106.76180058 203.01314713 108.0637537 203.03828384 109.40515995 203.06418228 C110.72258183 203.07771744 112.0400037 203.09125259 113.39734745 203.10519791 C116.65012595 203.14055419 119.90269438 203.19436076 123.15515995 203.25168228 C123.15515995 197.64168228 123.15515995 192.03168228 123.15515995 186.25168228 C120.70263798 186.29712173 120.70263798 186.29712173 118.20057011 186.34347916 C87.66505923 186.90090691 57.13378282 187.3550745 26.59265995 187.37668228 C25.34873478 187.37917984 24.10480961 187.3816774 22.82318974 187.38425064 C19.30751539 187.39009519 15.7919288 187.3886918 12.2762537 187.38449478 C11.24676105 187.38647873 10.21726841 187.38846268 9.15657902 187.39050674 C-4.75126865 187.34525368 -4.75126865 187.34525368 -6.84484005 185.25168228 C-6.94690554 182.89080817 -6.98371989 180.55903572 -6.97855282 178.19749832 C-6.98081837 177.45076495 -6.98308393 176.70403157 -6.98541814 175.93466991 C-6.99178672 173.41345357 -6.99092696 170.89229058 -6.99010372 168.37106705 C-6.99309343 166.57123113 -6.99649552 164.77139585 -7.00028133 162.97156143 C-7.00914459 158.06874674 -7.01146042 153.16594949 -7.01209712 148.26312757 C-7.01304425 144.17738437 -7.01672027 140.09164528 -7.02026922 136.00590366 C-7.02842258 126.37062399 -7.03085264 116.73535367 -7.03014278 107.10007095 C-7.02954172 97.14407871 -7.04009727 87.1881406 -7.05588645 77.23216206 C-7.0689397 68.69884534 -7.07432762 60.16554636 -7.07368737 51.63221973 C-7.07343174 46.52927084 -7.07631891 41.42637001 -7.08686543 36.32343102 C-7.09650927 31.52594642 -7.09665128 26.72855624 -7.08934879 21.93106842 C-7.08829831 20.16615601 -7.09069308 18.40123784 -7.09670925 16.63633537 C-7.1043671 14.23506061 -7.09982605 11.83411694 -7.09207821 9.43284988 C-7.09722177 8.72731415 -7.10236534 8.02177841 -7.10766476 7.29486281 C-7.06538079 1.40273267 -5.82098691 0.00211479 0 0 Z " fill="#D6D6D6" transform="translate(37.84484004974365,61.74831771850586)"/>
<path d="M0 0 C1.0297337 -0.00521549 2.05946739 -0.01043099 3.12040514 -0.01580453 C4.26036284 -0.01134309 5.40032055 -0.00688164 6.57482243 -0.002285 C7.77906252 -0.00540498 8.98330262 -0.00852497 10.22403485 -0.01173949 C13.57726717 -0.01835918 16.93027699 -0.01594612 20.28349602 -0.00976706 C23.89569357 -0.00525809 27.50787111 -0.01221859 31.12006474 -0.0177269 C38.20081787 -0.02663952 45.2815287 -0.02469052 52.36228352 -0.01890162 C58.11545619 -0.0143921 63.86861696 -0.01376914 69.62179089 -0.01594925 C70.4393853 -0.01625572 71.25697972 -0.01656218 72.09934973 -0.01687793 C73.76008447 -0.01751736 75.42081921 -0.01816579 77.08155394 -0.01882312 C92.66986442 -0.02453198 108.2581514 -0.01796 123.84645803 -0.00722238 C137.23135286 0.00171196 150.61621301 0.00016312 164.00110722 -0.00905991 C179.53058175 -0.01975562 195.06003566 -0.02398084 210.58951336 -0.01783538 C212.24457999 -0.01719826 213.89964662 -0.01656952 215.55471325 -0.01594925 C216.77631387 -0.01548642 216.77631387 -0.01548642 218.0225933 -0.01501425 C223.77050157 -0.01328508 229.51839681 -0.0162072 235.26630306 -0.02090836 C242.26880892 -0.02650951 249.27126992 -0.02501698 256.27377062 -0.01434687 C259.8487767 -0.00907954 263.42370792 -0.00705134 266.99871349 -0.01364517 C270.86868956 -0.02067524 274.73854221 -0.01229847 278.60851383 -0.002285 C279.74624082 -0.00674645 280.8839678 -0.01120789 282.05617136 -0.01580453 C283.60468352 -0.00798129 283.60468352 -0.00798129 285.18447876 0 C286.07839543 0.0003247 286.97231211 0.00064941 287.89331716 0.00098395 C290.15515995 0.25168228 290.15515995 0.25168228 293.15515995 2.25168228 C293.45653404 4.71048457 293.55963763 6.91954494 293.53611088 9.38142776 C293.54079085 10.12422645 293.54547082 10.86702513 293.55029261 11.63233286 C293.56230897 14.13445302 293.55275979 16.63603216 293.54334354 19.13815689 C293.54740634 20.92666826 293.55274658 22.71517711 293.55927372 24.50368118 C293.57298885 29.37143974 293.56763116 34.23900825 293.55813646 39.10677028 C293.55056036 44.1929672 293.55757986 49.27914746 293.56229496 54.365345 C293.567759 62.9091116 293.56054443 71.45280051 293.54627323 79.99655533 C293.5299507 89.88272073 293.53522974 99.7687005 293.55175245 109.65486139 C293.56535508 118.132177 293.56729281 126.60943663 293.55943644 135.08675963 C293.55475252 140.1545256 293.55415467 145.22220426 293.56404591 150.28996468 C293.57269534 155.05469283 293.56673079 159.81918112 293.54936314 164.58388329 C293.54538722 166.33547059 293.54655113 168.08707799 293.55315113 169.83865738 C293.56131347 172.22436429 293.55111011 174.60929603 293.53611088 176.99495316 C293.54280304 177.69300298 293.54949521 178.39105281 293.55639017 179.11025566 C293.52154353 181.95526089 293.45919898 183.8211836 291.79169273 186.18225956 C289.34200356 187.78305442 287.36785841 187.61839167 284.46106815 187.60812759 C283.27872089 187.61108841 282.09637363 187.61404922 280.87819767 187.61709976 C279.58385303 187.60479324 278.2895084 187.59248672 276.9559412 187.57980728 C275.58720427 187.57707481 274.21846439 187.57557658 272.84972477 187.57522964 C269.15563961 187.57020227 265.46190851 187.5459037 261.76793766 187.51758194 C258.70570734 187.49641562 255.64348244 187.48635167 252.58119869 187.47629166 C223.76828295 187.37900264 194.960562 186.90273008 166.15515995 186.25168228 C166.15515995 191.86168228 166.15515995 197.47168228 166.15515995 203.25168228 C168.26277714 203.21687759 170.37039433 203.18207291 172.5418787 203.14621353 C174.59386689 203.12278555 176.64583991 203.10458757 178.69788456 203.08688736 C180.11885136 203.07184468 181.53977208 203.05140524 182.96057987 203.02536392 C185.00862881 202.98877881 187.05606145 202.97191131 189.1043787 202.95871353 C190.95035648 202.93514786 190.95035648 202.93514786 192.83362675 202.91110611 C196.42227748 203.2790714 198.32581527 204.0442232 201.15515995 206.25168228 C201.15515995 206.91168228 201.15515995 207.57168228 201.15515995 208.25168228 C202.14515995 208.58168228 203.13515995 208.91168228 204.15515995 209.25168228 C204.90515995 211.25168228 204.90515995 211.25168228 205.15515995 213.25168228 C203.01047346 215.39636877 198.57071101 214.99126108 195.59265995 215.31418228 C194.38319706 215.45050064 194.38319706 215.45050064 193.14930058 215.58957291 C191.15168618 215.81415677 189.15347435 216.03341464 187.15515995 216.25168228 C189.3737359 216.99821885 191.59279396 217.74327985 193.81238651 218.4867897 C195.71596644 219.12453148 197.61895767 219.76403301 199.52137089 220.40524673 C204.01975828 221.91241105 208.51585705 223.38277083 213.07703495 224.68918228 C213.81244511 224.90292496 214.54785526 225.11666763 215.30555058 225.33688736 C216.68042107 225.73128335 218.05933725 226.11189951 219.44226933 226.47702408 C221.29578495 227.01340103 221.29578495 227.01340103 224.15515995 228.25168228 C225.07703495 230.39621353 225.07703495 230.39621353 225.15515995 232.25168228 C217.37602249 237.43777392 208.1129545 237.96012763 199.15515995 236.25168228 C194.48841364 235.21244886 189.86691433 234.05298336 185.24988651 232.81320572 C183.12450307 232.24346424 180.99586739 231.68759341 178.86609745 231.13449478 C168.4982291 228.42321685 168.4982291 228.42321685 166.15515995 227.25168228 C165.82515995 228.90168228 165.49515995 230.55168228 165.15515995 232.25168228 C151.62515995 232.25168228 138.09515995 232.25168228 124.15515995 232.25168228 C123.82515995 230.93168228 123.49515995 229.61168228 123.15515995 228.25168228 C122.48613651 228.50562759 121.81711308 228.75957291 121.1278162 229.02121353 C114.07152336 231.55011311 107.14610635 233.12343654 99.76868534 234.29977798 C95.84367282 234.8743852 95.84367282 234.8743852 92.15515995 236.25168228 C83.70577222 237.31658445 76.09697781 234.8150356 68.15515995 232.25168228 C67.82515995 230.93168228 67.49515995 229.61168228 67.15515995 228.25168228 C67.74039433 228.10472916 68.3256287 227.95777603 68.92859745 227.80636978 C75.14700466 226.18174087 81.2482804 224.2848186 87.34265995 222.25168228 C88.09015507 222.00273209 88.83765018 221.75378189 89.60779667 221.49728775 C94.49836035 219.85129023 99.33240574 218.0868413 104.15515995 216.25168228 C100.56161057 215.29180835 97.12038984 214.94924837 93.40515995 214.68918228 C92.2346912 214.60539322 91.06422245 214.52160416 89.85828495 214.43527603 C88.9662537 214.37469009 88.07422245 214.31410416 87.15515995 214.25168228 C86.82515995 213.26168228 86.49515995 212.27168228 86.15515995 211.25168228 C93.78929171 203.40549131 93.78929171 203.40549131 98.17957401 202.91110611 C99.33167362 202.92681656 100.48377323 202.94252701 101.67078495 202.95871353 C102.92117558 202.9683815 104.1715662 202.97804947 105.45984745 202.98801041 C106.76180058 203.01314713 108.0637537 203.03828384 109.40515995 203.06418228 C110.72258183 203.07771744 112.0400037 203.09125259 113.39734745 203.10519791 C116.65012595 203.14055419 119.90269438 203.19436076 123.15515995 203.25168228 C123.15515995 197.64168228 123.15515995 192.03168228 123.15515995 186.25168228 C120.70263798 186.29712173 120.70263798 186.29712173 118.20057011 186.34347916 C87.66505923 186.90090691 57.13378282 187.3550745 26.59265995 187.37668228 C25.34873478 187.37917984 24.10480961 187.3816774 22.82318974 187.38425064 C19.30751539 187.39009519 15.7919288 187.3886918 12.2762537 187.38449478 C11.24676105 187.38647873 10.21726841 187.38846268 9.15657902 187.39050674 C-4.75126865 187.34525368 -4.75126865 187.34525368 -6.84484005 185.25168228 C-6.94690554 182.89080817 -6.98371989 180.55903572 -6.97855282 178.19749832 C-6.98081837 177.45076495 -6.98308393 176.70403157 -6.98541814 175.93466991 C-6.99178672 173.41345357 -6.99092696 170.89229058 -6.99010372 168.37106705 C-6.99309343 166.57123113 -6.99649552 164.77139585 -7.00028133 162.97156143 C-7.00914459 158.06874674 -7.01146042 153.16594949 -7.01209712 148.26312757 C-7.01304425 144.17738437 -7.01672027 140.09164528 -7.02026922 136.00590366 C-7.02842258 126.37062399 -7.03085264 116.73535367 -7.03014278 107.10007095 C-7.02954172 97.14407871 -7.04009727 87.1881406 -7.05588645 77.23216206 C-7.0689397 68.69884534 -7.07432762 60.16554636 -7.07368737 51.63221973 C-7.07343174 46.52927084 -7.07631891 41.42637001 -7.08686543 36.32343102 C-7.09650927 31.52594642 -7.09665128 26.72855624 -7.08934879 21.93106842 C-7.08829831 20.16615601 -7.09069308 18.40123784 -7.09670925 16.63633537 C-7.1043671 14.23506061 -7.09982605 11.83411694 -7.09207821 9.43284988 C-7.09722177 8.72731415 -7.10236534 8.02177841 -7.10766476 7.29486281 C-7.06538079 1.40273267 -5.82098691 0.00211479 0 0 Z M9.15515995 14.25168228 C9.15515995 64.08168228 9.15515995 113.91168228 9.15515995 165.25168228 C96.93515995 165.25168228 184.71515995 165.25168228 275.15515995 165.25168228 C275.15515995 115.42168228 275.15515995 65.59168228 275.15515995 14.25168228 C187.37515995 14.25168228 99.59515995 14.25168228 9.15515995 14.25168228 Z " fill="#101010" transform="translate(37.84484004974365,61.74831771850586)"/>
<path d="M0 0 C2.45922099 2.45922099 2.2522991 3.12366491 2.26069641 6.50350952 C2.26778122 7.45127762 2.27486603 8.39904572 2.28216553 9.37553406 C2.27968811 10.41869278 2.27721069 11.4618515 2.2746582 12.53662109 C2.27976913 13.63264145 2.28488007 14.7286618 2.29014587 15.8578949 C2.30409448 19.496464 2.303081 23.13484477 2.30078125 26.7734375 C2.30466556 29.29448518 2.30899967 31.8155322 2.31376648 34.33657837 C2.32124024 39.62773018 2.32106686 44.91881238 2.31567383 50.20996094 C2.30963631 56.32550175 2.3219371 62.44081235 2.3432439 68.55631387 C2.36298317 74.43815509 2.3660336 80.31992497 2.36250877 86.2018013 C2.36302314 88.7048967 2.36828242 91.20799569 2.37832069 93.71107101 C2.3906254 97.20909206 2.38392862 100.70657769 2.37231445 104.20458984 C2.37995819 105.2437001 2.38760193 106.28281036 2.39547729 107.35340881 C2.38846298 108.30681656 2.38144867 109.2602243 2.3742218 110.24252319 C2.37438954 111.06953924 2.37455729 111.89655529 2.37473011 112.74863243 C1.90427674 115.57510253 0.99105438 116.95850741 -1 119 C-4.1875 119.25 -4.1875 119.25 -7 119 C-8.75061118 115.964967 -9.25194019 113.77774169 -9.26069641 110.28721619 C-9.26778122 109.34366776 -9.27486603 108.40011932 -9.28216553 107.42797852 C-9.27968811 106.39979004 -9.27721069 105.37160156 -9.2746582 104.31225586 C-9.27976913 103.22409073 -9.28488007 102.1359256 -9.29014587 101.01478577 C-9.30405639 97.4147493 -9.3030843 93.81490391 -9.30078125 90.21484375 C-9.30466671 87.71667916 -9.30900107 85.21851524 -9.31376648 82.72035217 C-9.32123135 77.48404307 -9.32107298 72.24778357 -9.31567383 67.01147461 C-9.30962742 60.95721949 -9.32196329 54.90319638 -9.3432439 48.84898084 C-9.36296718 43.02372041 -9.36603591 37.19855112 -9.36250877 31.37326241 C-9.36302338 28.89446021 -9.36828711 26.41565442 -9.37832069 23.93687248 C-9.39060811 20.47718088 -9.38394 17.01803202 -9.37231445 13.55834961 C-9.37995819 12.5281369 -9.38760193 11.49792419 -9.39547729 10.43649292 C-9.38846298 9.49576431 -9.38144867 8.55503571 -9.3742218 7.58580017 C-9.37438954 6.76783431 -9.37455729 5.94986845 -9.37473011 5.10711575 C-8.42795139 -0.21664207 -4.77782428 -0.50827918 0 0 Z " fill="#FBFBFB" transform="translate(299,91)"/>
<path d="M0 0 C0.72489624 -0.0033284 1.44979248 -0.0066568 2.19665527 -0.01008606 C3.72989263 -0.0151505 5.26314101 -0.01749453 6.79638672 -0.01733398 C9.14699343 -0.01952263 11.49713249 -0.03768876 13.84765625 -0.05664062 C15.33593589 -0.05957417 16.82421777 -0.06155923 18.3125 -0.0625 C19.01773804 -0.06968552 19.72297607 -0.07687103 20.44958496 -0.08427429 C25.42742152 -0.06085973 25.42742152 -0.06085973 27.65625 2.16796875 C27.90625 5.16796875 27.90625 5.16796875 27.65625 8.16796875 C25.65625 10.16796875 25.65625 10.16796875 22.95068359 10.39501953 C21.83000488 10.3845459 20.70932617 10.37407227 19.5546875 10.36328125 C17.73710938 10.35361328 17.73710938 10.35361328 15.8828125 10.34375 C14.61179687 10.32699219 13.34078125 10.31023437 12.03125 10.29296875 C10.7525 10.28394531 9.47375 10.27492188 8.15625 10.265625 C4.98939833 10.24199178 1.82291576 10.20904504 -1.34375 10.16796875 C-1.32018433 11.37126831 -1.32018433 11.37126831 -1.29614258 12.59887695 C-1.23386417 16.22600279 -1.19478136 19.85301624 -1.15625 23.48046875 C-1.13111328 24.74310547 -1.10597656 26.00574219 -1.08007812 27.30664062 C-1.06557617 29.11938477 -1.06557617 29.11938477 -1.05078125 30.96875 C-1.02721558 32.64191284 -1.02721558 32.64191284 -1.00317383 34.34887695 C-1.34375 37.16796875 -1.34375 37.16796875 -2.7019043 39.06323242 C-4.34375 40.16796875 -4.34375 40.16796875 -6.90625 40.04296875 C-9.34375 39.16796875 -9.34375 39.16796875 -11.34375 36.16796875 C-11.5150414 33.62567278 -11.57617934 31.19607394 -11.5390625 28.65625 C-11.5362326 27.92802536 -11.53340271 27.19980072 -11.53048706 26.44950867 C-11.51930257 24.12632738 -11.49420166 21.80353328 -11.46875 19.48046875 C-11.45871794 17.90430245 -11.44959248 16.3281301 -11.44140625 14.75195312 C-11.41936896 10.89047608 -11.38485141 7.02928804 -11.34375 3.16796875 C-10.68375 3.16796875 -10.02375 3.16796875 -9.34375 3.16796875 C-9.34375 2.50796875 -9.34375 1.84796875 -9.34375 1.16796875 C-6.35285916 -0.32747667 -3.28007814 0.00517577 0 0 Z " fill="#FDFDFD" transform="translate(68.34375,86.83203125)"/>
<path d="M0 0 C0.33 0.66 0.66 1.32 1 2 C1.66 2 2.32 2 3 2 C3 50.18 3 98.36 3 148 C89.46 148.33 175.92 148.66 265 149 C265 149.33 265 149.66 265 150 C177.55 150.33 90.1 150.66 0 151 C0 101.17 0 51.34 0 0 Z " fill="#E2E2E2" transform="translate(47,76)"/>
<path d="M0 0 C0.7437085 0.00016113 1.48741699 0.00032227 2.25366211 0.00048828 C4.52143509 -0.00388356 6.78725932 -0.04019084 9.0546875 -0.078125 C10.49413396 -0.08399347 11.93358968 -0.08796266 13.37304688 -0.08984375 C14.68523193 -0.09806152 15.99741699 -0.1062793 17.34936523 -0.11474609 C20.59570312 0.37109375 20.59570312 0.37109375 22.59399414 2.23193359 C23.59570312 4.37109375 23.59570312 4.37109375 22.84570312 7.05859375 C21.59570312 9.37109375 21.59570312 9.37109375 20.59570312 10.37109375 C18.24341994 10.48426659 15.92158365 10.53525912 13.56835938 10.5390625 C12.51218666 10.5440551 12.51218666 10.5440551 11.43467712 10.54914856 C9.94254206 10.5542203 8.45039562 10.55655681 6.95825195 10.55639648 C4.67119705 10.55858134 2.3846256 10.57672924 0.09765625 10.59570312 C-1.34960772 10.59863729 -2.79687399 10.60062193 -4.24414062 10.6015625 C-4.93064194 10.60874802 -5.61714325 10.61593353 -6.32444763 10.62333679 C-11.17547319 10.59991744 -11.17547319 10.59991744 -13.40429688 8.37109375 C-13.65429688 5.37109375 -13.65429688 5.37109375 -13.40429688 2.37109375 C-9.90896466 -1.12423846 -4.72644651 0.03230555 0 0 Z " fill="#FEFEFE" transform="translate(256.404296875,205.62890625)"/>
<path d="M0 0 C1.65965532 0.38935557 3.31927578 0.77886013 4.97875977 1.16894531 C6.47248487 1.51963307 7.96647056 1.86921239 9.46069336 2.21777344 C13.82358353 3.23888487 18.17720695 4.28892099 22.5234375 5.37890625 C23.44487549 5.60682861 24.36631348 5.83475098 25.31567383 6.06958008 C27.10903325 6.5138155 28.90064991 6.96516382 30.69018555 7.42456055 C37.20774295 9.02614676 43.8260335 10.4298012 50.1875 7.5 C53.26692186 6.20627839 55.61143971 5.68232247 59 6 C59 5.34 59 4.68 59 4 C57.35 3.67 55.7 3.34 54 3 C57 2 57 2 59.1875 2.9375 C59.785625 3.288125 60.38375 3.63875 61 4 C60.67 5.32 60.34 6.64 60 8 C45.71438154 12.85919577 35.42221762 11.40878272 21.09472656 7.56152344 C18.96934312 6.99178195 16.84070744 6.43591113 14.7109375 5.8828125 C4.34306915 3.17153457 4.34306915 3.17153457 2 2 C1.67 3.65 1.34 5.3 1 7 C-12.53 7 -26.06 7 -40 7 C-40.33 6.34 -40.66 5.68 -41 5 C-27.8 5 -14.6 5 -1 5 C-0.67 3.35 -0.34 1.7 0 0 Z " fill="#F9F9F9" transform="translate(202,287)"/>
<path d="M0 0 C0 0.66 0 1.32 0 2 C-7.69879461 4.92227849 -15.28232994 6.75587702 -23.38647461 8.0480957 C-27.31148713 8.62270292 -27.31148713 8.62270292 -31 10 C-39.44938773 11.06490217 -47.05818214 8.56335331 -55 6 C-55.33 4.68 -55.66 3.36 -56 2 C-54.35 1.67 -52.7 1.34 -51 1 C-51 1.99 -51 2.98 -51 4 C-49.22105357 4.73969937 -47.42574747 5.44008094 -45.625 6.125 C-44.12839844 6.71667969 -44.12839844 6.71667969 -42.6015625 7.3203125 C-37.65454633 8.25391425 -33.82317184 7.23389407 -29 6 C-27.53046875 5.63624268 -27.53046875 5.63624268 -26.03125 5.26513672 C-21.84147227 4.21437339 -17.66086527 3.1300561 -13.48242188 2.03515625 C-12.46083984 1.77347656 -11.43925781 1.51179688 -10.38671875 1.2421875 C-9.01326294 0.88423096 -9.01326294 0.88423096 -7.61206055 0.51904297 C-5.0022406 0.00044523 -2.65301678 -0.0952104 0 0 Z " fill="#E4E4E4" transform="translate(161,288)"/>
<path d="M0 0 C12.21 0 24.42 0 37 0 C37 0.99 37 1.98 37 3 C24.79 3 12.58 3 0 3 C0 2.01 0 1.02 0 0 Z " fill="#D6D6D6" transform="translate(163,235)"/>
<path d="M0 0 C2.97 0.495 2.97 0.495 6 1 C6.33 2.32 6.66 3.64 7 5 C-0.02442914 9.68295276 -8.30482255 10.44968071 -16.52734375 9.51953125 C-19.18078167 8.96201586 -21.51722017 8.07927639 -24 7 C-20.83389453 5.98232324 -19.16968298 6.20757925 -16 7 C-10.50886412 7.36607573 -6.87811041 6.78791917 -1.83203125 4.66796875 C0.50110979 3.81729259 2.54129105 3.76949604 5 4 C5 3.34 5 2.68 5 2 C2.525 1.505 2.525 1.505 0 1 C0 0.67 0 0.34 0 0 Z " fill="#F3F3F3" transform="translate(256,289)"/>
<path d="M0 0 C4.75 1.875 4.75 1.875 7 3 C7 3.66 7 4.32 7 5 C7.99 5.33 8.98 5.66 10 6 C10.75 8 10.75 8 11 10 C8.58995299 12.41004701 2.88512888 11.82043533 -0.375 12.125 C-1.34695312 12.22425781 -2.31890625 12.32351563 -3.3203125 12.42578125 C-4.25359375 12.51472656 -5.186875 12.60367187 -6.1484375 12.6953125 C-7.00614746 12.77797363 -7.86385742 12.86063477 -8.74755859 12.94580078 C-11 13 -11 13 -14 12 C-14 11.34 -14 10.68 -14 10 C-6.31395526 9.02840067 1.25863399 8.89079578 9 9 C8.2575 8.2575 7.515 7.515 6.75 6.75 C4.5 4.5 2.25 2.25 0 0 Z " fill="#DFDFDF" transform="translate(232,265)"/>
<path d="M0 0 C0.99 0.33 1.98 0.66 3 1 C3 1.66 3 2.32 3 3 C5.97 3.99 8.94 4.98 12 6 C12 6.33 12 6.66 12 7 C6.34605369 7.34615998 2.96993194 6.43425238 -2 4 C-2 3.01 -2 2.02 -2 1 C-1.34 0.67 -0.68 0.34 0 0 Z " fill="#D2D2D2" transform="translate(107,289)"/>
<path d="M0 0 C2.97 0.495 2.97 0.495 6 1 C6.33 2.32 6.66 3.64 7 5 C3.1496895 7.56687367 1.41430237 6.83288724 -3 6 C0.22791555 3.8480563 1.28400809 3.79913557 5 4 C5 3.34 5 2.68 5 2 C3.35 1.67 1.7 1.34 0 1 C0 0.67 0 0.34 0 0 Z " fill="#DBDBDB" transform="translate(256,289)"/>
<path d="M0 0 C5.61 0 11.22 0 17 0 C13.45744522 1.77127739 11.7164598 2.3398129 7.9375 2.6875 C7.08027344 2.77386719 6.22304687 2.86023438 5.33984375 2.94921875 C3 3 3 3 0 2 C0 1.34 0 0.68 0 0 Z " fill="#E9E9E9" transform="translate(218,275)"/>
<path d="M0 0 C0 0.66 0 1.32 0 2 C-1.43554025 2.50559908 -2.8735202 3.0042749 -4.3125 3.5 C-5.51326172 3.91765625 -5.51326172 3.91765625 -6.73828125 4.34375 C-9 5 -9 5 -12 5 C-12 4.34 -12 3.68 -12 3 C-4.71428571 -0.42857143 -4.71428571 -0.42857143 0 0 Z " fill="#EDEDED" transform="translate(161,288)"/>
</svg>
