<?xml version="1.0" encoding="UTF-8"?>
<svg version="1.1" xmlns="http://www.w3.org/2000/svg" viewBox="560 280 420 420">
<path d="M0 0 C0.89229309 -0.00626404 1.78458618 -0.01252808 2.70391846 -0.01898193 C33.58388697 -0.15584174 62.67092006 7.81789702 89.8125 22.4375 C90.41932617 22.75831543 91.02615234 23.07913086 91.65136719 23.40966797 C104.57214555 30.27448518 115.44805077 38.91359533 126.0703125 48.8828125 C129.10447593 51.70951177 132.22257175 54.41828539 135.38671875 57.09765625 C136.8125 58.4375 136.8125 58.4375 137.8125 60.4375 C143.09437735 60.04587792 146.0579049 57.14964801 149.9375 53.875 C151.27230884 52.78377419 152.60825463 51.6939377 153.9453125 50.60546875 C154.92806152 49.79988525 154.92806152 49.79988525 155.93066406 48.97802734 C167.20482201 39.74866348 167.20482201 39.74866348 172.6875 38.6875 C176.52914315 39.60949436 178.11338613 40.53405288 180.8125 43.4375 C181.55777696 46.46359435 181.48550284 49.4293231 181.44360352 52.53295898 C181.45433647 53.91167175 181.45433647 53.91167175 181.46528625 55.3182373 C181.48219759 58.35719478 181.46275466 61.39468198 181.44140625 64.43359375 C181.44223479 66.54582339 181.44469362 68.65805296 181.44871521 70.77027893 C181.45157498 75.19804279 181.43685542 79.62530132 181.40942383 84.05297852 C181.37536197 89.72717499 181.38135084 95.40046646 181.4000864 101.07470608 C181.41065876 105.43707309 181.40171599 109.79922977 181.38670158 114.16157722 C181.38151967 116.25354449 181.38200168 118.34553373 181.38824654 120.43749809 C181.39370063 123.36302724 181.37331614 126.28726454 181.34594727 129.21264648 C181.35573608 130.50873589 181.35573608 130.50873589 181.36572266 131.83100891 C181.30180566 135.85173456 181.11103127 137.95003145 178.96665955 141.45155334 C174.31462161 145.74032536 168.07222584 144.80758127 162.09326172 144.58691406 C152.83710634 143.9805378 143.44545427 142.54137959 134.41015625 140.44921875 C129.00548958 139.20750206 123.54587089 138.43302261 118.0625 137.625 C115.77194485 137.27337458 113.48158765 136.92045781 111.19140625 136.56640625 C106.74629926 135.88120635 102.2990685 135.2163944 97.84780884 134.57240295 C95.85559488 134.27965829 93.86562552 133.97495134 91.87597656 133.6652832 C89.33537854 133.27017508 86.79169872 132.89429629 84.24511719 132.53979492 C74.61268225 130.99616979 74.61268225 130.99616979 71.52734375 127.46484375 C69.55194802 123.97752783 68.97690776 122.36478351 69.8125 118.4375 C73.87444562 113.84989082 78.72521219 110.23242556 83.5625 106.5 C84.70332031 105.60764648 84.70332031 105.60764648 85.8671875 104.69726562 C91.02878829 100.69483789 96.33033658 96.98722524 101.8125 93.4375 C93.39026403 75.27772874 64.13472061 62.10313529 46.5 55.5 C39.7078179 53.25960544 32.84697143 51.70070475 25.8125 50.4375 C24.71550781 50.23125 23.61851562 50.025 22.48828125 49.8125 C8.52902471 47.47785082 -5.19757208 47.97384393 -19.1875 49.75 C-20.11812256 49.86754639 -21.04874512 49.98509277 -22.00756836 50.10620117 C-48.77393033 53.83533466 -74.4180013 67.03183571 -94.00390625 85.4296875 C-96.1875 87.4375 -96.1875 87.4375 -98.63671875 89.296875 C-101.66197848 91.83568408 -104.03767348 94.70127782 -106.4375 97.8125 C-107.15147949 98.73615356 -107.15147949 98.73615356 -107.87988281 99.6784668 C-124.33152417 121.2472381 -133.31717283 145.01409396 -134.5 172.3125 C-134.84489115 176.91846569 -135.25475358 180.52783632 -138.45800781 184.01269531 C-145.45515765 189.77714568 -156.13754299 188.89202849 -164.625 188.8125 C-165.89021484 188.82410156 -167.15542969 188.83570313 -168.45898438 188.84765625 C-169.66748047 188.84378906 -170.87597656 188.83992187 -172.12109375 188.8359375 C-173.21478271 188.83255371 -174.30847168 188.82916992 -175.43530273 188.82568359 C-178.1875 188.4375 -178.1875 188.4375 -180.04394531 187.20800781 C-181.52912287 184.90858261 -181.56047388 183.44111692 -181.55078125 180.7109375 C-181.55182861 179.77040527 -181.55287598 178.82987305 -181.55395508 177.86083984 C-181.5361499 176.8548877 -181.51834473 175.84893555 -181.5 174.8125 C-181.48799561 173.77432129 -181.47599121 172.73614258 -181.46362305 171.66650391 C-180.66975164 127.85155836 -163.72514052 86.88800269 -132.62890625 55.88671875 C-131.19013003 54.44333844 -129.7705338 52.9795655 -128.3984375 51.47265625 C-106.79915705 28.26491875 -74.92957654 12.93943571 -44.62207031 5.07080078 C-43.0595908 4.66435555 -41.50107355 4.24216932 -39.94824219 3.80029297 C-26.80347757 0.12569409 -13.54828167 0.04467865 0 0 Z " fill="#FDB048" transform="translate(769.1875,304.5625)"/>
<path d="M0 0 C2.14440042 0.00315353 4.28741123 -0.02029191 6.43164062 -0.0456543 C7.8066389 -0.0479283 9.18164085 -0.04863032 10.55664062 -0.04760742 C11.79849121 -0.05058838 13.0403418 -0.05356934 14.31982422 -0.05664062 C18.11732097 0.35159161 20.54176129 1.32637303 23.78320312 3.31567383 C31.21771618 18.18469993 21.95405558 48.34857996 17.14697266 63.29370117 C13.63444653 73.75475392 9.02556974 83.61838926 3.78320312 93.31567383 C3.44981934 93.93796875 3.11643555 94.56026367 2.77294922 95.20141602 C-18.62403685 134.55862019 -56.95459972 161.19879893 -98.21679688 176.31567383 C-98.90064453 176.56833008 -99.58449219 176.82098633 -100.2890625 177.08129883 C-104.87367178 178.74005193 -109.49594412 180.10186313 -114.21679688 181.31567383 C-115.31483643 181.60982178 -115.31483643 181.60982178 -116.43505859 181.90991211 C-130.6500848 185.53707194 -144.885902 185.71213741 -159.46679688 185.75317383 C-160.86472473 185.76243393 -160.86472473 185.76243393 -162.29089355 185.7718811 C-178.38108436 185.84032366 -194.1415597 184.3563236 -209.71679688 180.12817383 C-210.48975098 179.91950684 -211.26270508 179.71083984 -212.05908203 179.49584961 C-234.93811785 173.01646227 -256.91649026 161.41414576 -275.21679688 146.31567383 C-276.17054199 145.53111816 -276.17054199 145.53111816 -277.14355469 144.73071289 C-283.77296371 139.23815839 -290.40467519 133.68133091 -296.21679688 127.31567383 C-296.21679688 126.65567383 -296.21679688 125.99567383 -296.21679688 125.31567383 C-296.96960938 125.89833008 -297.72242188 126.48098633 -298.49804688 127.08129883 C-304.93609687 132.05442792 -311.40326295 136.98762331 -317.90429688 141.87817383 C-318.59910156 142.4025 -319.29390625 142.92682617 -320.00976562 143.46704102 C-320.65945313 143.95462891 -321.30914063 144.4422168 -321.97851562 144.94458008 C-322.55561279 145.37843018 -323.13270996 145.81228027 -323.72729492 146.25927734 C-327.21524753 148.73303098 -329.9891954 148.60723255 -334.21679688 148.31567383 C-337.40183257 146.55552252 -338.0497666 145.81676467 -339.21679688 142.31567383 C-339.32884308 139.43644069 -339.3844946 136.58079475 -339.39379883 133.70092773 C-339.40365562 132.38095543 -339.40365562 132.38095543 -339.41371155 131.03431702 C-339.4334336 128.12028927 -339.44510346 125.20631297 -339.45507812 122.29223633 C-339.45915365 121.29726513 -339.46322918 120.30229393 -339.46742821 119.27717209 C-339.48828224 114.01298988 -339.50258801 108.74883371 -339.51196289 103.48461914 C-339.52303825 98.04478677 -339.55745315 92.60536222 -339.59713459 87.16567421 C-339.62326029 82.98437736 -339.63165103 78.8031784 -339.63524437 74.6218071 C-339.64011919 72.61632908 -339.65175857 70.6108557 -339.67028236 68.60545731 C-339.69459223 65.79971045 -339.69372396 62.99502859 -339.68676758 60.18920898 C-339.69957764 59.36098129 -339.7123877 58.5327536 -339.72558594 57.6794281 C-339.68948472 53.68538704 -339.5144817 51.77930089 -337.30143738 48.33261108 C-332.6081723 43.79177002 -327.26259042 43.06653755 -320.85842896 43.15975952 C-315.66630929 43.46620861 -310.56041547 44.34306908 -305.43164062 45.17895508 C-304.21714737 45.37160446 -303.00265411 45.56425385 -301.75135803 45.76274109 C-299.18829303 46.17060909 -296.62575357 46.58179181 -294.0637207 46.99609375 C-290.19201489 47.62207554 -286.31886881 48.23836723 -282.4453125 48.8527832 C-271.06785885 50.66661139 -259.70375185 52.49921111 -248.40136719 54.73876953 C-244.95396117 55.36328812 -241.50921077 55.78997783 -238.02929688 56.19067383 C-234.07550671 56.79404379 -232.31006888 57.25407911 -228.90429688 59.50317383 C-226.69789078 63.18051732 -226.47560427 65.09087596 -227.21679688 69.31567383 C-230.50168004 73.81584344 -234.1104445 76.99223632 -238.71679688 80.12817383 C-239.31830566 80.54760254 -239.91981445 80.96703125 -240.53955078 81.39916992 C-242.42666183 82.71252048 -244.32150046 84.01417233 -246.21679688 85.31567383 C-247.48560921 86.19634464 -248.75384745 87.07784321 -250.02148438 87.96020508 C-253.08062578 90.08739269 -256.14668752 92.20433617 -259.21679688 94.31567383 C-254.89188001 104.49060982 -241.91516288 111.27752267 -233.01171875 117.13208008 C-231.55355188 118.0936134 -230.10949487 119.07651938 -228.66992188 120.06567383 C-200.6764065 138.33094627 -162.97779552 141.53220693 -130.76757812 135.34692383 C-102.77117924 129.2793319 -79.08768561 115.72729717 -58.21679688 96.31567383 C-57.19779297 95.3952832 -57.19779297 95.3952832 -56.15820312 94.45629883 C-34.41735976 73.98403586 -23.20789302 42.10742928 -21.71679688 12.81567383 C-21.70648437 11.85661133 -21.69617188 10.89754883 -21.68554688 9.90942383 C-21.06013438 6.44880801 -19.64821001 4.81557748 -17.21679688 2.31567383 C-12.17806155 -1.00810071 -5.80787854 -0.017901 0 0 Z " fill="#2C3852" transform="translate(925.216796875,470.684326171875)"/>
</svg>
