<?xml version="1.0" encoding="UTF-8"?>
<svg version="1.1" xmlns="http://www.w3.org/2000/svg" viewBox="540 270 460 460">
<path d="M0 0 C1.2478125 -0.03996094 2.495625 -0.07992188 3.78125 -0.12109375 C15.65628526 0.66708419 27.41889551 6.98369277 38.04217529 11.96481323 C41.10421421 13.40051697 44.17434646 14.81853147 47.24411011 16.23762512 C48.80042795 16.95715112 50.35635942 17.67751345 51.91189575 18.39872742 C58.53355661 21.46575642 65.19589935 24.4352278 71.875 27.375 C84.41299052 32.90920846 96.860371 38.63406628 109.30761719 44.36865234 C117.06662032 47.94292619 124.82694123 51.51146292 132.625 55 C141.10793348 58.79953804 149.57245086 62.63915763 158.0302124 66.49435425 C159.56417403 67.19313592 161.09854138 67.8910278 162.63336182 68.58792114 C170.21618626 72.03183347 177.78090532 75.51038024 185.2578125 79.1796875 C186.88807373 79.97802002 186.88807373 79.97802002 188.55126953 80.79248047 C193.53872777 83.57485285 196.77346962 86.16999761 199.1875 91.375 C199.78111328 92.62603516 199.78111328 92.62603516 200.38671875 93.90234375 C200.75410156 94.73894531 201.12148438 95.57554687 201.5 96.4375 C202.02116866 97.52066844 202.02116866 97.52066844 202.55286598 98.62571907 C203.72593703 102.10824503 203.78360343 105.33074354 203.76742554 108.96115112 C203.77195665 109.71029695 203.77648776 110.45944277 203.78115618 111.23128998 C203.79379914 113.7374269 203.79217984 116.24334647 203.79052734 118.74951172 C203.79651304 120.54855122 203.80331868 122.34758815 203.81088257 124.1466217 C203.82855495 129.03355429 203.83323874 133.92041684 203.83451414 138.80737829 C203.83593668 141.86541946 203.84020844 144.92344289 203.84550858 147.98147964 C203.8640196 158.6647479 203.87217867 169.34796625 203.87060547 180.03125 C203.86940683 189.96327801 203.89045179 199.89508774 203.9220928 209.82706058 C203.94833356 218.37085988 203.95896936 226.91458831 203.95769465 235.45842755 C203.9571869 240.55340627 203.96276499 245.64819141 203.98405075 250.74312973 C204.00356241 255.54490185 204.0034701 260.34629848 203.98901749 265.14808464 C203.98694355 266.89948138 203.99154462 268.6509024 204.0037384 270.40225792 C204.0925464 284.05475743 203.70102326 298.54428028 193.90332031 309.16894531 C189.37359397 313.04153838 184.62334062 315.6503817 179.25 318.1875 C177.45744378 319.05806656 175.66579725 319.93050838 173.875 320.8046875 C172.97394531 321.24264648 172.07289063 321.68060547 171.14453125 322.13183594 C167.13607724 324.11089909 163.1937193 326.20817053 159.25 328.3125 C151.14864404 332.6170909 142.96461869 336.74189188 134.73730469 340.80029297 C128.64561237 343.81851723 122.61579505 346.94107731 116.60546875 350.1171875 C106.05496339 355.69174786 95.4404496 361.13735561 84.8125 366.5625 C83.84341705 367.05763092 82.87433411 367.55276184 81.87588501 368.06289673 C65.43559207 376.46114286 48.95662956 384.77954045 32.41821289 392.98291016 C30.61865018 393.87990628 28.82271874 394.78428409 27.03295898 395.70068359 C16.84145125 400.91680035 6.47144384 402.06442807 -4.625 398.9375 C-12.90526859 396.15454582 -20.68755203 392.3109292 -28.5 388.4375 C-29.11617187 388.13360352 -29.73234375 387.82970703 -30.3671875 387.51660156 C-34.24736649 385.59981009 -38.11412895 383.65689053 -41.97851562 381.70849609 C-46.74590211 379.30541573 -51.51609397 376.90796342 -56.28866577 374.51519775 C-57.97171776 373.67055902 -59.65349843 372.82338841 -61.33520508 371.97607422 C-67.35264819 368.95837924 -73.39417006 366.00287158 -79.47579956 363.11660767 C-96.61399041 354.97824507 -113.62118905 346.57262037 -130.61118984 338.13016224 C-135.54187085 335.68029797 -140.47555826 333.23695895 -145.41674805 330.80834961 C-150.26794934 328.4238013 -155.11105545 326.02351489 -159.94891548 323.61202049 C-161.77327479 322.70592542 -163.60036431 321.80530396 -165.4303112 320.91054726 C-188.48412109 309.62636648 -188.48412109 309.62636648 -193.5 296.4375 C-196.15269068 287.5590823 -195.79653031 278.56863658 -195.79052734 269.39257812 C-195.79651829 267.56350939 -195.80332514 265.73444318 -195.81088257 263.90538025 C-195.82848749 258.95710597 -195.83323549 254.00890094 -195.83451414 249.06059837 C-195.83593889 245.9657304 -195.84021451 242.87087986 -195.84550858 239.77601624 C-195.86398733 228.96996956 -195.87218148 218.16397211 -195.87060547 207.35791016 C-195.86940315 197.29844062 -195.89052879 187.23918531 -195.9220928 177.17976999 C-195.94826599 168.52897845 -195.9589724 159.87825687 -195.95769465 151.22742605 C-195.95718553 146.0667475 -195.96284191 140.90625969 -195.98405075 135.74562073 C-196.00345187 130.892927 -196.00354477 126.0406057 -195.98901749 121.18789864 C-195.98693095 119.41140255 -195.991621 117.63488303 -196.0037384 115.85842705 C-196.07852771 104.13092174 -195.40844941 94.91549814 -187.12988281 85.93457031 C-184.49444977 83.51388796 -181.55898898 81.87583467 -178.375 80.3125 C-177.65328613 79.94398926 -176.93157227 79.57547852 -176.18798828 79.19580078 C-168.14849699 75.14878862 -159.95192784 71.41628522 -151.77490234 67.65771484 C-142.79409277 63.52931294 -133.88599945 59.26581261 -125 54.9375 C-115.39480547 50.26316113 -105.76253738 45.66302043 -96.0625 41.1875 C-84.48529029 35.84481782 -72.95399058 30.40976514 -61.4375 24.9375 C-60.58206604 24.53133453 -59.72663208 24.12516907 -58.84527588 23.70669556 C-50.27696201 19.63739123 -41.71567694 15.55520548 -33.1875 11.40234375 C-32.24276573 10.94325119 -32.24276573 10.94325119 -31.27894592 10.47488403 C-28.40948862 9.08027097 -25.54288857 7.68043115 -22.68139648 6.26953125 C-15.10004364 2.57486431 -8.54540078 0.14763396 0 0 Z " fill="#2E3649" transform="translate(764.5,294.5625)"/>
<path d="M0 0 C4.61551458 1.49381118 8.91700447 3.30407903 13.2578125 5.45703125 C14.29546501 5.96546822 14.29546501 5.96546822 15.3540802 6.48417664 C16.83889447 7.2117812 18.32296907 7.94089683 19.80636597 8.67138672 C23.76590642 10.62007036 27.73221715 12.55484125 31.69921875 14.48828125 C32.49664993 14.87698395 33.29408112 15.26568665 34.11567688 15.66616821 C42.12589745 19.56213209 50.19819994 23.31547348 58.28759766 27.04418945 C67.88618192 31.47151764 77.44614565 35.97711536 87 40.5 C99.04535732 46.200764 111.10642721 51.86428708 123.20507812 57.45117188 C132.83561023 61.90307923 142.40961265 66.45718494 152 71 C152 130.4 152 189.8 152 251 C147.6722713 249.55742377 144.1016958 248.16479813 140.09765625 246.12890625 C138.97311035 245.56083252 137.84856445 244.99275879 136.68994141 244.4074707 C136.09965149 244.10716949 135.50936157 243.80686829 134.90118408 243.49746704 C131.73968994 241.88985383 128.57112337 240.29631809 125.40234375 238.703125 C124.76486206 238.38241531 124.12738037 238.06170563 123.47058105 237.73127747 C118.05755629 235.01461936 112.60169873 232.39765678 107.125 229.8125 C95.82289243 224.4650131 84.65947378 218.84739685 73.48602295 213.23788452 C63.94589312 208.45011949 54.39715583 203.69470539 44.75 199.125 C36.4340729 195.174203 28.13784607 191.1856834 19.875 187.125 C18.76479492 186.58891113 17.65458984 186.05282227 16.51074219 185.50048828 C8.69444375 181.63361805 3.51374107 178.2583711 0 170 C-0.36914349 166.60676003 -0.36914349 166.60676003 -0.36076355 162.82461548 C-0.36332682 162.12528503 -0.3658901 161.42595458 -0.36853105 160.7054323 C-0.37345165 158.3745093 -0.35700528 156.0442417 -0.34057617 153.71337891 C-0.33972952 152.0376385 -0.34020578 150.36189698 -0.34190369 148.68615723 C-0.34276359 144.14523718 -0.32513857 139.60455539 -0.30418181 135.06369066 C-0.28541426 130.31512698 -0.28366451 125.56655769 -0.28010559 120.81796265 C-0.27078536 111.82953735 -0.24617185 102.84122165 -0.21605712 93.8528446 C-0.18251245 83.61833281 -0.16602693 73.38381575 -0.15097082 63.14926267 C-0.11962231 42.0994473 -0.0668622 21.04973056 0 0 Z " fill="#FCBD52" transform="translate(599,405)"/>
<path d="M0 0 C1.18295654 0.56960449 2.36591309 1.13920898 3.5847168 1.72607422 C4.24093521 2.03891861 4.89715363 2.351763 5.57325745 2.67408752 C6.98930444 3.34988884 8.40378455 4.02898127 9.8168335 4.71102905 C13.6302985 6.55099311 17.45583126 8.36558312 21.2800293 10.18310547 C22.4585849 10.74433861 22.4585849 10.74433861 23.66094971 11.31690979 C31.59620679 15.08844089 39.5896643 18.72665685 47.59643555 22.34326172 C50.3441873 23.58596595 53.09156646 24.8294903 55.83862305 26.07373047 C56.50502304 26.37555237 57.17142303 26.67737427 57.85801697 26.98834229 C64.49934049 30.00079229 71.11200274 33.07403977 77.72143555 36.15576172 C89.53765635 41.66377918 101.39567605 47.07575883 113.27026367 52.45654297 C114.58603851 53.05285382 115.90179412 53.6492071 117.2175293 54.24560547 C117.84742767 54.53112274 118.47732605 54.81664001 119.12631226 55.11080933 C125.33825102 57.92981552 131.53198778 60.78770572 137.72143555 63.65576172 C135.01410038 65.78468197 132.33839843 67.47076862 129.2565918 69.00341797 C127.94754883 69.65745605 127.94754883 69.65745605 126.61206055 70.32470703 C125.6787793 70.78458008 124.74549805 71.24445313 123.78393555 71.71826172 C122.81842773 72.19489258 121.85291992 72.67152344 120.8581543 73.16259766 C118.8345836 74.15927193 116.80998667 75.15386503 114.78442383 76.14648438 C111.7839454 77.62496019 108.79717281 79.12856136 105.8112793 80.63623047 C103.94847185 81.56036322 102.08520795 82.48357662 100.22143555 83.40576172 C99.35655518 83.84799072 98.4916748 84.29021973 97.60058594 84.74584961 C96.78452881 85.14408936 95.96847168 85.5423291 95.12768555 85.95263672 C94.4193457 86.30680664 93.71100586 86.66097656 92.98120117 87.02587891 C88.1282853 88.37857153 83.79928781 86.4501865 79.4128418 84.39794922 C78.41704102 83.93646484 77.42124023 83.47498047 76.39526367 82.99951172 C75.36852539 82.51482422 74.34178711 82.03013672 73.28393555 81.53076172 C72.29200195 81.06927734 71.30006836 80.60779297 70.27807617 80.13232422 C68.19750182 79.16325312 66.11862738 78.19052595 64.04125977 77.21459961 C61.17242048 75.86752365 58.30004062 74.52834899 55.42619324 73.19200134 C49.23384671 70.31075531 43.05819602 67.39608061 36.89331055 64.45654297 C21.40174564 57.07301296 5.90402374 49.7580088 -9.81469727 42.86767578 C-19.54775789 38.58416989 -29.12206711 33.99625387 -38.68481445 29.34716797 C-44.17236717 26.68539618 -49.71416283 24.15227801 -55.27856445 21.65576172 C-55.27856445 20.99576172 -55.27856445 20.33576172 -55.27856445 19.65576172 C-51.13904274 17.64626635 -46.99878477 15.63829783 -42.85791016 13.6315918 C-41.45667746 12.95229821 -40.05562826 12.27262593 -38.65478516 11.5925293 C-35.24002757 9.93484424 -31.82259087 8.28328076 -28.39916992 6.64355469 C-25.62237041 5.31226886 -22.86479722 3.94861382 -20.11499023 2.5625 C-18.78553322 1.90711981 -17.45594848 1.25199862 -16.1262207 0.59716797 C-14.95196533 0.00750244 -13.77770996 -0.58216309 -12.56787109 -1.18969727 C-7.62480499 -2.92470503 -4.74548046 -1.94568586 0 0 Z " fill="#FBFBFC" transform="translate(690.278564453125,365.34423828125)"/>
<path d="M0 0 C1.49442627 0.71917603 1.49442627 0.71917603 3.01904297 1.45288086 C4.16735596 1.99871826 5.31566895 2.54455566 6.4987793 3.10693359 C7.10928131 3.40091034 7.71978333 3.69488708 8.3487854 3.99777222 C11.69259892 5.60626247 15.04927813 7.18744731 18.40576172 8.76928711 C19.11401596 9.10349167 19.8222702 9.43769623 20.55198669 9.7820282 C28.62781577 13.57923784 36.78546836 17.18840301 44.94873047 20.79272461 C48.00640835 22.14471742 51.0636615 23.49766698 54.12060547 24.85131836 C54.87510483 25.18541214 55.62960419 25.51950592 56.40696716 25.86372375 C68.96495628 31.43191342 81.45534433 37.15016855 93.95056152 42.85742188 C97.0725734 44.28268438 100.19560064 45.70571633 103.31855774 47.12890625 C106.54039605 48.59743618 109.76171685 50.0670984 112.98287964 51.53710938 C114.52695777 52.24166233 116.07116478 52.94593291 117.61550903 53.64990234 C119.7622365 54.62871621 121.90830386 55.60896307 124.05419922 56.58959961 C124.6839566 56.87643616 125.31371399 57.16327271 125.96255493 57.45880127 C129.72745051 59.18148741 133.44310714 60.98380708 137.13623047 62.85522461 C134.97098525 65.21625819 132.89442272 66.67729094 130.05126953 68.1394043 C129.23321838 68.56284119 128.41516724 68.98627808 127.57232666 69.42254639 C126.69107117 69.86954895 125.80981567 70.31655151 124.90185547 70.77709961 C123.99046814 71.24134338 123.07908081 71.70558716 122.14007568 72.18389893 C120.2117959 73.16219704 118.28175422 74.13702897 116.35009766 75.10864258 C113.40258343 76.59696731 110.46886316 78.11038019 107.53466797 79.62475586 C105.65786268 80.57295335 103.78028262 81.51961917 101.90185547 82.46459961 C101.0286969 82.9196991 100.15553833 83.37479858 99.25592041 83.84368896 C94.11621134 86.38568955 90.88086154 87.49277362 85.13623047 85.85522461 C82.32666016 84.80224609 82.32666016 84.80224609 79.55810547 83.47631836 C78.49841553 82.97575928 77.43872559 82.4752002 76.34692383 81.95947266 C75.20489502 81.4094458 74.06286621 80.85941895 72.88623047 80.29272461 C71.01664995 79.40621991 69.14536752 78.52337365 67.27403259 77.64057922 C65.95213291 77.01670607 64.6307415 76.39175494 63.30982971 75.76579285 C56.32562881 72.45878846 49.29904021 69.24645568 42.26721191 66.04226685 C40.05219913 65.03291305 37.8377813 64.02226487 35.62353516 63.01123047 C32.62387844 61.64161249 29.62403279 60.27240986 26.62402344 58.90356445 C20.01744527 55.88868264 13.41329799 52.86848443 6.80899048 49.84863281 C4.6475671 48.86040783 2.48603398 47.87242331 0.32446289 46.88452148 C-6.49932899 43.76574822 -13.32254088 40.64572117 -20.14404297 37.52194214 C-23.35958806 36.0495235 -26.5754131 34.57771687 -29.79125977 33.10595703 C-31.32151049 32.40541652 -32.85162458 31.70457745 -34.3815918 31.00341797 C-36.50551189 30.0300821 -38.62990449 29.05778445 -40.75439453 28.08569336 C-41.37264099 27.80203415 -41.99088745 27.51837494 -42.62786865 27.22612 C-46.68143759 25.37295588 -50.76186947 23.59777835 -54.86376953 21.85522461 C-54.86376953 21.19522461 -54.86376953 20.53522461 -54.86376953 19.85522461 C-52.94848499 18.92797592 -51.03309746 18.00093998 -49.11767578 17.07397461 C-48.51942993 16.78442398 -47.92118408 16.49487335 -47.30480957 16.19654846 C-44.01104522 14.60308716 -40.71589008 13.0125954 -37.41821289 11.42724609 C-36.08754934 10.7873863 -34.75690148 10.14749386 -33.42626953 9.50756836 C-32.76901382 9.1915416 -32.11175812 8.87551483 -31.43458557 8.5499115 C-27.72945292 6.76502898 -24.03980222 4.95347066 -20.36376953 3.10913086 C-19.2121936 2.5406543 -19.2121936 2.5406543 -18.03735352 1.96069336 C-16.67382071 1.28704792 -15.31601793 0.60161869 -13.96557617 -0.09790039 C-8.75467073 -2.64137688 -5.29715117 -2.1175057 0 0 Z " fill="#FBFBFC" transform="translate(766.86376953125,328.144775390625)"/>
<path d="M0 0 C0.12368107 5.33845574 0.21437609 10.67607624 0.2746582 16.015625 C0.299789 17.83152799 0.33389961 19.64732996 0.37719727 21.46289062 C0.43791511 24.07447223 0.46622281 26.68471594 0.48828125 29.296875 C0.51408768 30.10743347 0.5398941 30.91799194 0.56648254 31.75311279 C0.56830401 35.42101455 0.46181294 37.47987339 -2.01660156 40.27124023 C-5.70652224 42.40940131 -9.41149557 44.44920843 -13.22265625 46.36328125 C-14.00515244 46.75952194 -14.78764862 47.15576263 -15.59385681 47.56401062 C-17.24043098 48.39485927 -18.88862343 49.22250774 -20.53833008 50.04711914 C-23.06423879 51.31337167 -25.57991906 52.59853882 -28.09570312 53.88476562 C-29.69993134 54.6912778 -31.30473012 55.49665628 -32.91015625 56.30078125 C-33.66128189 56.68712234 -34.41240753 57.07346344 -35.18629456 57.47151184 C-38.92626995 59.31699348 -41.01000404 60.33495171 -45 59 C-45.09894543 53.66151328 -45.17150414 48.32356131 -45.21972656 42.984375 C-45.23983061 41.1685252 -45.26711835 39.35274005 -45.30175781 37.53710938 C-45.35033039 34.92561895 -45.37298027 32.31498502 -45.390625 29.703125 C-45.41127014 28.89256653 -45.43191528 28.08200806 -45.45318604 27.24688721 C-45.4545438 23.82922323 -45.36760466 21.53225975 -43.39697266 18.67895508 C-40.4774286 16.63396583 -37.45881136 14.98051757 -34.2578125 13.43359375 C-33.61182098 13.11342789 -32.96582947 12.79326202 -32.30026245 12.46339417 C-30.24549763 11.44714004 -28.18545502 10.44215876 -26.125 9.4375 C-24.74833032 8.75920911 -23.37202436 8.08017949 -21.99609375 7.40039062 C-19.45681344 6.14701491 -16.91547593 4.89803618 -14.37158203 3.65405273 C-12.17278487 2.57535246 -10.00356848 1.43344594 -7.87451172 0.22290039 C-4.66500513 -1.1425165 -3.26578903 -1.0565788 0 0 Z " fill="#FCFCFC" transform="translate(937,409)"/>
</svg>
